<svg id="Calque_1" data-name="Calque 1" xmlns="http://www.w3.org/2000/svg" viewBox="0 0 1169 191"><defs><style>.cls-1{fill:none;stroke:#03a9f4;stroke-miterlimit:10;stroke-width:12px;}.cls-2{fill:#fff;}.cls-3{font-size:44px;font-family:ProductSans-Regular, Product Sans;}.cls-17,.cls-24,.cls-3{fill:#03a9f4;}.cls-4,.cls-9{letter-spacing:0em;}.cls-11,.cls-5{letter-spacing:0em;}.cls-10,.cls-11,.cls-12,.cls-6,.cls-7,.cls-8,.cls-9{fill:#4fc3f7;}.cls-6{letter-spacing:-0.05em;}.cls-7{letter-spacing:-0.01em;}.cls-10{letter-spacing:-0.02em;}.cls-12,.cls-14{letter-spacing:0em;}.cls-13{letter-spacing:0em;}.cls-15{letter-spacing:-0.01em;}.cls-16{letter-spacing:-0.03em;}.cls-17{font-size:90px;font-family:ProductSans-Bold, Product Sans;font-weight:700;}.cls-18{letter-spacing:-0.01em;}.cls-19{letter-spacing:-0.03em;}.cls-20{letter-spacing:-0.04em;}.cls-21{letter-spacing:-0.07em;}.cls-22{letter-spacing:-0.02em;}.cls-23{letter-spacing:-0.02em;}</style></defs><title>Plan de travail 1</title><rect class="cls-1" x="25" y="38" width="1113" height="129"/><rect class="cls-2" x="113" y="6" width="481" height="59"/><text class="cls-3" transform="translate(123.53 50.5)"><tspan class="cls-4">u</tspan><tspan class="cls-5" x="23.63" y="0">s</tspan><tspan x="43.87" y="0">a</tspan><tspan class="cls-6" x="66.31" y="0">.</tspan><tspan class="cls-7" x="74.32" y="0">v</tspan><tspan class="cls-8" x="95.79" y="0">a</tspan><tspan class="cls-9" x="118.23" y="0">l</tspan><tspan class="cls-8" x="126.98" y="0">e</tspan><tspan class="cls-10" x="150.57" y="0">n</tspan><tspan class="cls-11" x="173.31" y="0">t</tspan><tspan class="cls-8" x="189.11" y="0">i</tspan><tspan class="cls-9" x="198.79" y="0">ng</tspan><tspan class="cls-8" x="247.54" y="0">uibert.</tspan><tspan class="cls-12" x="372.5" y="0">c</tspan><tspan class="cls-7" x="395.25" y="0">o</tspan><tspan class="cls-8" x="419.45" y="0">m</tspan></text><rect class="cls-2" x="484" y="137" width="564" height="48"/><text class="cls-3" transform="translate(502.95 176.5)"><tspan class="cls-4">to</tspan><tspan class="cls-13" x="39.78" y="0">u</tspan><tspan class="cls-14" x="63.84" y="0">t</tspan><tspan class="cls-13" x="79.2" y="0">e</tspan><tspan x="103" y="0">s </tspan><tspan class="cls-14" x="132.7" y="0">l</tspan><tspan class="cls-13" x="141.46" y="0">e</tspan><tspan x="165.26" y="0">s i</tspan><tspan class="cls-15" x="204.64" y="0">n</tspan><tspan class="cls-16" x="228.05" y="0">f</tspan><tspan class="cls-4" x="242.92" y="0">o</tspan><tspan x="267.34" y="0">s n</tspan><tspan class="cls-5" x="320.89" y="0">é</tspan><tspan class="cls-4" x="344.69" y="0">c</tspan><tspan class="cls-13" x="367.44" y="0">é</tspan><tspan x="391.24" y="0">s</tspan><tspan class="cls-5" x="411.26" y="0">s</tspan><tspan x="431.5" y="0">ai</tspan><tspan class="cls-16" x="463.62" y="0">r</tspan><tspan class="cls-13" x="478.27" y="0">e</tspan><tspan x="502.07" y="0">s</tspan></text><text class="cls-17" transform="translate(37.89 135.44)"><tspan class="cls-18">N</tspan><tspan class="cls-19" x="64.17" y="0">O</tspan><tspan x="135.45" y="0">TRE</tspan><tspan class="cls-20" x="295.74" y="0"> </tspan><tspan class="cls-19" x="311.94" y="0">V</tspan><tspan class="cls-20" x="370.44" y="0">O</tspan><tspan class="cls-21" x="440.82" y="0">Y</tspan><tspan class="cls-22" x="491.4" y="0">A</tspan><tspan x="554.04" y="0">GE</tspan><tspan class="cls-19" x="678.95" y="0"> </tspan><tspan class="cls-18" x="696.05" y="0">A</tspan><tspan x="759.59" y="0">UX</tspan><tspan class="cls-23" x="881.72" y="0"> </tspan><tspan x="899.72" y="0">U</tspan><tspan class="cls-18" x="959.93" y="0">S</tspan><tspan x="1010.78" y="0">A</tspan></text><circle class="cls-2" cx="444.5" cy="102.5" r="35.5"/><path class="cls-24" d="M479,100a33.58,33.58,0,0,1-28.45,33.14,8,8,0,0,0,.08-2.29s-.1-.83-.22-1.9a29.28,29.28,0,0,0,15-7.36,4.31,4.31,0,0,1-.73-.82c-1.09-1.59.33-3.16.33-4.54s-2.73-1.25-2.84-2.15c-.34-3.12,1.92-3.16,3.12-4.36s-1.19-3.94-2.74-3.77-5.93-.72-5.53-4.07c.48-4.08-5.21-3.72-6-5.63-1.19-2.78.78-6.19,3.36-7,3.65-1.1,7.24-4.07,7-7.39a12.39,12.39,0,0,0-4.81-9.14,29,29,0,0,0-9.34-2.09c-2.93.11-5.5.76-5.39,2.1.29,3.29,9.64,4.15,8.07,7.22-.81,1.6-7,3.87-5.81,6.25.75,1.55,2.58.22,1.9,3.2-.32,1.37-1.52,3.94-3.37,4.11s-3.46-4.83-8.6-5c-2.43-.08-5.86,3.79-3,6.54,1.76,1.66,5.07-2,6,.86.69,2-.09,6.25,3.12,8,1.17.64,3,1.2,4.73,2.1a62.54,62.54,0,0,0-9.68,3l-3.22-.85c1.35-1.12,3.54-1.91,3-4.36-.81-3.6-7.06-2.24-11.37-6.55a17.2,17.2,0,0,1-4.13-11A29.26,29.26,0,0,0,416.07,100a29.69,29.69,0,0,0,.34,4.45h-.15a9.74,9.74,0,0,0-3.92.83,34,34,0,0,1-.42-5.27A33.54,33.54,0,1,1,479,100Zm-25.16,9.77-8.19,3.76.13-1.78,5.31-2.4c-.76,0-1.55-.07-2.33-.07-2.93,0-7.88,1.48-13.36,3.66l-17.57-4.64a6.14,6.14,0,0,0-4.82.74l-.87.54a1.36,1.36,0,0,0,0,2.3l10.56,6.85c-2.53,1.29-4.92,2.6-7,3.85l-5.42-2.87a3.44,3.44,0,0,0-2.86-.15l-.51.21a1.35,1.35,0,0,0-.68,1.93l3,5.31h0c-1.12,1-1.77,1.77-1.77,2.32,0,1.67,2.05,2.08,3.86,2.08,3.22,0,45.74-9.73,45.74-18.55C457,111.12,455.8,110.25,453.83,109.78ZM435.9,127l9.36-3.3a.68.68,0,0,1,.9.57l.82,7a4.09,4.09,0,0,1-2.33,4.19l-.88.4a1.36,1.36,0,0,1-1.6-.33l-6.55-7.45A.68.68,0,0,1,435.9,127Z"/></svg>